<?xml version="1.0" standalone="no"?>
<!DOCTYPE svg PUBLIC "-//W3C//DTD SVG 20010904//EN"
 "http://www.w3.org/TR/2001/REC-SVG-20010904/DTD/svg10.dtd">
<svg version="1.0" xmlns="http://www.w3.org/2000/svg"
 width="300.000000pt" height="300.000000pt" viewBox="0 0 300.000000 300.000000"
 preserveAspectRatio="xMidYMid meet">
<metadata>
Created by potrace 1.11, written by Peter Selinger 2001-2013
</metadata>
<g transform="translate(0.000000,300.000000) scale(0.100000,-0.100000)"
fill="#000000" stroke="none">
<path d="M61 2979 c-66 -40 -61 81 -61 -1474 0 -1102 3 -1415 13 -1434 6 -13
25 -34 40 -45 l28 -21 1407 -1 c1122 -1 1413 1 1439 12 17 7 40 25 50 40 17
27 18 90 19 1439 0 1526 3 1445 -53 1482 -26 17 -109 18 -1441 19 -1320 0
-1415 -1 -1441 -17z"/>
</g>
</svg>
